<svg xmlns="http://www.w3.org/2000/svg" viewBox="0 0 22.03 16.03"><defs><style>.cls-1{fill:#162859;}</style></defs><title>Oko_desable</title><g id="Layer_2" data-name="Layer 2"><g id="Layer_1-2" data-name="Layer 1"><path class="cls-1" d="M21.33,15.7C18,13.28,1.42,1.18,1,.72L1.65,0C2.14.44,14,9.15,21.92,14.89Z"/><path class="cls-1" d="M9.08,4.58a4,4,0,0,1,2-.55,4,4,0,0,1,4,4,4.12,4.12,0,0,1-.1.86l4.65,3.4A12.88,12.88,0,0,0,22,8.73a2.25,2.25,0,0,0-.1-1.4A11.82,11.82,0,0,0,11,0a11.49,11.49,0,0,0-5.89,1.6Z"/><path class="cls-1" d="M13.67,11a4,4,0,0,1-2.6,1,4,4,0,0,1-4-4A4,4,0,0,1,7.4,6.45L3,3.2A12.55,12.55,0,0,0,.07,7.33a2.25,2.25,0,0,0,.1,1.4A11.82,11.82,0,0,0,11.07,16,11.59,11.59,0,0,0,17.68,14Z"/></g></g></svg>